<?xml version="1.0" encoding="UTF-8" standalone="no"?>
<svg
   xmlns:dc="http://purl.org/dc/elements/1.1/"
   xmlns:cc="http://creativecommons.org/ns#"
   xmlns:rdf="http://www.w3.org/1999/02/22-rdf-syntax-ns#"
   xmlns:svg="http://www.w3.org/2000/svg"
   xmlns="http://www.w3.org/2000/svg"
   xmlns:sodipodi="http://sodipodi.sourceforge.net/DTD/sodipodi-0.dtd"
   xmlns:inkscape="http://www.inkscape.org/namespaces/inkscape"
   height="1233"
   width="1233"
   id="svg2985"
   version="1.1"
   inkscape:version="0.48.4 r9943 custom"
   sodipodi:docname="favicon.svg">
  <metadata
     id="metadata2993">
    <rdf:RDF>
      <cc:Work
         rdf:about="">
        <dc:format>image/svg+xml</dc:format>
        <dc:type
           rdf:resource="http://purl.org/dc/dcmitype/StillImage" />
        <dc:title></dc:title>
      </cc:Work>
    </rdf:RDF>
  </metadata>
  <defs
     id="defs2991" />
  <sodipodi:namedview
     pagecolor="#ffffff"
     bordercolor="#666666"
     borderopacity="1"
     objecttolerance="10"
     gridtolerance="10"
     guidetolerance="10"
     inkscape:pageopacity="0"
     inkscape:pageshadow="2"
     inkscape:window-width="1163"
     inkscape:window-height="835"
     id="namedview2989"
     showgrid="false"
     fit-margin-top="0"
     fit-margin-left="170"
     fit-margin-right="170"
     fit-margin-bottom="100"
     inkscape:zoom="0.236"
     inkscape:cx="-237.69492"
     inkscape:cy="567.01921"
     inkscape:window-x="513"
     inkscape:window-y="196"
     inkscape:window-maximized="0"
     inkscape:current-layer="svg2985" />
  <path
     d="m 1008,673 q 22,0 38.5,16 16.5,16 16.5,40 l 0,223 q 0,23 -16.5,39 -16.5,16 -38.5,16 l -168,0 0,-446 Q 840,469 774.5,403.5 709,338 616.5,338 524,338 458.5,403.5 393,469 393,561 l 0,446 -167,0 q -24,0 -40,-16 -16,-16 -16,-39 l 0,-223 q 0,-23 16,-39.5 16,-16.5 40,-16.5 l 56,0 0,-112 Q 282,423 380,324.5 478,226 616,226 754,226 852.5,324.5 951,423 951,561 l 0,112 57,0 z"
     id="path2987"
     inkscape:connector-curvature="0"
     style="fill:#000000" />
</svg>
